<svg xmlns="http://www.w3.org/2000/svg" width="260" height="220" viewBox="0 0 260 220" role="img" aria-label="Lost astronaut">
  <rect width="260" height="220" fill="#f9f6ff" />
  <circle cx="210" cy="50" r="22" fill="#ffd43b" />
  <circle cx="70" cy="40" r="6" fill="#845ef7" />
  <circle cx="90" cy="70" r="4" fill="#845ef7" />
  <g transform="translate(70 50)">
    <rect x="35" y="40" width="70" height="80" rx="16" fill="#fff" stroke="#1b1b1f" stroke-width="4" />
    <circle cx="70" cy="30" r="30" fill="#fff" stroke="#1b1b1f" stroke-width="4" />
    <rect x="50" y="20" width="40" height="28" rx="10" fill="#3a86ff" stroke="#1b1b1f" stroke-width="4" />
    <circle cx="58" cy="34" r="4" fill="#fff" />
    <circle cx="82" cy="34" r="4" fill="#fff" />
    <path d="M58 44 Q70 52 82 44" fill="none" stroke="#fff" stroke-width="4" stroke-linecap="round" />
    <rect x="20" y="60" width="20" height="50" rx="10" fill="#fff" stroke="#1b1b1f" stroke-width="4" />
    <rect x="100" y="60" width="20" height="50" rx="10" fill="#fff" stroke="#1b1b1f" stroke-width="4" />
    <rect x="45" y="120" width="20" height="40" rx="10" fill="#fff" stroke="#1b1b1f" stroke-width="4" />
    <rect x="75" y="120" width="20" height="40" rx="10" fill="#fff" stroke="#1b1b1f" stroke-width="4" />
    <path d="M35 105 Q20 115 15 135" fill="none" stroke="#ff922b" stroke-width="4" stroke-linecap="round" />
    <path d="M105 105 Q120 120 130 140" fill="none" stroke="#ff922b" stroke-width="4" stroke-linecap="round" />
    <circle cx="22" cy="140" r="6" fill="#ff922b" />
    <circle cx="132" cy="145" r="5" fill="#ff922b" />
  </g>
</svg>
